# xmcd
#
# Track frame offsets:
#	150
#	18611
#	33814
#	48113
#	66015
#	79029
#	98307
#	116179
#	137144
#	157172
#	169957
#	187730
#	206077
#	221575
#	236191
#
# Disc length: 3377 seconds
#
# Revision: 1
# Processed by: cddbd v1.5.2PL0 Copyright (c) Steve Scherf et al.
# Submitted via: audiograbber 1.83.01
#
DISCID=cb0d2f0f
DTITLE=IVETE, GIL E CAETANO - ESPECIAL
DYEAR=2012
DGENRE=
TTITLE0=A NOVIDADE
TTITLE1=TODA MENINA BAIANA TEM
TTITLE2=O MEU AMOR
TTITLE3=TÁ COMBINADO
TTITLE4=A LINHA E O LINHO
TTITLE5=A LUZ DE TIETA
TTITLE6=TIGRESA
TTITLE7=VOCÊ É LINDA
TTITLE8=ATRÁS DA PORTA
TTITLE9=SUPER-HOMEM(A CANÇÃO)
TTITLE10=SE EU NÃO TE AMASSE
TTITLE11=OLHOS NOS OLHOS
TTITLE12=DRÃO
TTITLE13=DOM DE ILUDIR
TTITLE14=AMOR ATÉ O FIM
EXTD=
EXTT0=
EXTT1=
EXTT2=
EXTT3=
EXTT4=
EXTT5=
EXTT6=
EXTT7=
EXTT8=
EXTT9=
EXTT10=
EXTT11=
EXTT12=
EXTT13=
EXTT14=
PLAYORDER=
